HIERARCHY
ROOT WRIST
{
	OFFSET 0.000000 0.000000 0.000000
	CHANNELS 6 Xposition Yposition Zposition Yrotation Xrotation Zrotation
	JOINT THUMB_CMC_FE
	{
		OFFSET -0.225143 0.117753 -0.062308
		CHANNELS 3 Yrotation Xrotation Zrotation
		JOINT THUMB_CMC_AA
		{
			OFFSET -0.212856 -0.150507 0.098851
			CHANNELS 3 Yrotation Xrotation Zrotation
			JOINT THUMB_MCP_FE
			{
				OFFSET 0.322503 -0.167445 -0.031436
				CHANNELS 3 Yrotation Xrotation Zrotation
				JOINT THUMB_IP_FE
				{
					OFFSET -0.295233 -0.236404 0.025845
					CHANNELS 3 Yrotation Xrotation Zrotation
					End Site
					{
						OFFSET 0.000000 0.000000 0.000000
					}
				}
			}
		}
	}
	JOINT INDEX_MCP
	{
		OFFSET -1.076913 0.264198 -0.014768
		CHANNELS 3 Yrotation Xrotation Zrotation
		JOINT INDEX_PIP_FE
		{
			OFFSET -0.425053 0.013289 0.013619
			CHANNELS 3 Yrotation Xrotation Zrotation
			JOINT INDEX_DIP_FE
			{
				OFFSET -0.271505 -0.024898 0.000550
				CHANNELS 3 Yrotation Xrotation Zrotation
				End Site
				{
					OFFSET 0.000000 0.000000 0.000000
				}
			}
		}
	}
	JOINT MIDDLE_MCP
	{
		OFFSET -1.072991 0.019362 0.038780
		CHANNELS 3 Yrotation Xrotation Zrotation
		JOINT MIDDLE_PIP_FE
		{
			OFFSET -0.480704 0.002618 0.028696
			CHANNELS 3 Yrotation Xrotation Zrotation
			JOINT MIDDLE_DIP_FE
			{
				OFFSET -0.307486 -0.031129 -0.000643
				CHANNELS 3 Yrotation Xrotation Zrotation
				End Site
				{
					OFFSET 0.000000 0.000000 0.000000
				}
			}
		}
	}
	JOINT RING_MCP
	{
		OFFSET -0.994992 -0.195930 -0.005938
		CHANNELS 3 Yrotation Xrotation Zrotation
		JOINT RING_PIP_FE
		{
			OFFSET -0.436995 0.003792 0.019994
			CHANNELS 3 Yrotation Xrotation Zrotation
			JOINT RING_DIP_FE
			{
				OFFSET -0.295558 -0.038341 -0.006642
				CHANNELS 3 Yrotation Xrotation Zrotation
				End Site
				{
					OFFSET 0.000000 0.000000 0.000000
				}
			}
		}
	}
	JOINT PINKY_MCP
	{
		OFFSET -0.873858 -0.393246 -0.086282
		CHANNELS 3 Yrotation Xrotation Zrotation
		JOINT PINKY_PIP_FE
		{
			OFFSET -0.343972 -0.016492 0.013445
			CHANNELS 3 Yrotation Xrotation Zrotation
			JOINT PINKY_DIP_FE
			{
				OFFSET -0.224713 -0.036309 -0.010265
				CHANNELS 3 Yrotation Xrotation Zrotation
				End Site
				{
					OFFSET 0.000000 0.000000 0.000000
				}
			}
		}
	}
}
MOTION
Frames: 17
Frame Time: 0.008333334
-0.509496 2.871511 4.391349 -88.563690 -72.970580 -26.854980 -61.461180 4.834478 -71.442020 -119.352900 -30.976930 -5.316742 112.863900 -65.843230 46.042130 -4.562103 -8.459839 37.326160 160.874300 3.188821 169.407000 41.978050 -86.125700 -20.669800 2.052622 1.705001 32.588650 165.409600 -2.165436 165.839100 39.241300 -88.411560 -14.162990 6.002514 4.395432 -0.938202 175.271100 -6.697327 165.619700 31.479600 -85.617800 1.807762 -0.199310 0.562915 -1.350677 -175.386400 -11.722140 160.087600 48.977500 -83.530610 -4.103485 -5.539795 0.809172 21.576460 
-0.509117 2.871498 4.391348 -88.623320 -72.942690 -26.784670 -61.461180 4.834475 -71.409970 -119.352900 -30.976930 -5.320892 112.864000 -65.843200 46.023410 -4.562073 -8.459839 37.333230 160.918100 3.189840 169.377100 41.978390 -86.125610 -20.759220 2.052623 1.704994 33.029460 165.417100 -2.164734 165.832000 39.240670 -88.411440 -14.199680 6.002528 4.395454 -0.941406 175.350400 -6.678528 165.591800 31.479530 -85.617680 1.876829 -0.199310 0.562912 -1.210541 -175.323900 -11.700870 160.073500 48.977650 -83.530610 -4.126648 -5.539825 0.809168 21.734860 
-0.508757 2.871056 4.391081 -88.512390 -72.858220 -26.890410 -61.461180 4.834463 -71.391330 -119.352900 -30.976930 -5.402985 112.863900 -65.843230 46.035910 -4.562103 -8.459808 37.390820 160.706100 3.184874 169.352600 41.978400 -86.125550 -20.905820 2.052607 1.704986 32.973160 165.234700 -2.181519 165.797800 39.241040 -88.411440 -14.376160 6.002511 4.395458 -0.936585 175.303600 -6.689606 165.541700 31.479430 -85.617800 1.857689 -0.199310 0.562934 -0.888550 -175.357800 -11.712400 160.010800 48.977720 -83.530640 -4.069702 -5.539795 0.809183 21.731210 
-0.508808 2.870963 4.390817 -88.444120 -72.883120 -26.946500 -61.461180 4.834485 -71.448360 -119.352900 -30.976930 -5.417450 112.863900 -65.843230 46.064360 -4.562103 -8.459839 37.399260 160.704300 3.184831 169.401000 41.978130 -86.125670 -20.856140 2.052640 1.705002 32.915270 165.189400 -2.185669 165.831600 39.240990 -88.411440 -14.429870 6.002512 4.395452 -0.960724 175.261100 -6.699677 165.581100 31.479450 -85.617860 1.816824 -0.199310 0.562932 -0.810516 -175.339000 -11.706020 160.024600 48.977510 -83.530640 -3.976379 -5.539795 0.809169 21.851330 
-0.508784 2.870478 4.390434 -88.406100 -72.866300 -26.995670 -61.461180 4.834466 -71.463530 -119.352900 -30.976960 -5.412842 112.864000 -65.843200 46.129810 -4.562073 -8.459839 37.361870 160.704700 3.184850 169.361100 41.978120 -86.125550 -20.789640 2.052626 1.705010 32.887250 165.202500 -2.184479 165.794200 39.240670 -88.411190 -14.357060 6.002514 4.395443 -1.005737 175.280600 -6.695068 165.539500 31.479710 -85.617800 1.820728 -0.199310 0.562918 -0.637543 -175.328100 -11.702270 160.002200 48.977510 -83.530610 -3.953766 -5.539795 0.809180 21.868620 
-0.508808 2.870531 4.390328 -88.522980 -72.845950 -26.878450 -61.461180 4.834475 -71.411740 -119.352900 -30.976930 -5.401215 112.863900 -65.843230 46.080880 -4.562103 -8.459839 37.435510 160.830100 3.187789 169.323100 41.978200 -86.125700 -20.539980 2.052615 1.704992 32.642520 165.272500 -2.178040 165.773100 39.241050 -88.411190 -14.332670 6.002508 4.395449 -0.864899 175.362300 -6.675720 165.538100 31.479500 -85.617830 1.846810 -0.199310 0.562921 -0.567841 -175.238600 -11.671810 160.003400 48.977500 -83.530610 -3.906067 -5.539795 0.809182 21.912400 
-0.509035 2.870826 4.390182 -88.609920 -72.875430 -26.787080 -61.461180 4.834470 -71.285340 -119.352900 -30.976930 -5.314575 112.864000 -65.843230 45.795070 -4.562103 -8.459839 37.540570 160.827800 3.187729 169.387700 41.977810 -86.125610 -20.708470 2.052651 1.705002 32.750540 165.348800 -2.171021 165.804900 39.240530 -88.411560 -14.298250 6.002538 4.395454 -0.733276 175.447500 -6.655487 165.560200 31.479430 -85.617740 1.944013 -0.199280 0.562932 -0.556335 -175.241000 -11.672640 160.043900 48.977590 -83.530550 -3.965729 -5.539825 0.809179 21.893240 
-0.509314 2.870915 4.389837 -88.815950 -72.781770 -26.617550 -61.461180 4.834482 -71.161710 -119.352900 -30.976930 -5.333771 112.864000 -65.843200 45.769900 -4.562103 -8.459839 37.463280 160.796300 3.186978 169.262900 41.978050 -86.125610 -20.799070 2.052625 1.705003 32.808560 165.376700 -2.168457 165.712600 39.240680 -88.411440 -14.292330 6.002524 4.395458 -0.772064 175.582300 -6.623474 165.464200 31.479470 -85.617740 2.112643 -0.199310 0.562923 -0.593018 -175.030100 -11.600650 159.934800 48.977580 -83.530610 -3.718781 -5.539825 0.809185 21.828690 
-0.509186 2.871215 4.389657 -88.923190 -72.766540 -26.516450 -61.461150 4.834476 -71.134640 -119.352900 -30.976930 -5.348572 112.864000 -65.843230 45.772870 -4.562103 -8.459839 37.539890 160.836500 3.187927 169.238600 41.978390 -86.125670 -20.794860 2.052611 1.704989 32.895210 165.405600 -2.165802 165.673900 39.240650 -88.411320 -14.275540 6.002527 4.395448 -0.876038 175.636300 -6.610657 165.434400 31.479370 -85.617800 2.177970 -0.199310 0.562929 -0.673218 -174.945900 -11.571840 159.863300 48.977500 -83.530640 -3.645966 -5.539795 0.809185 21.890610 
-0.508500 2.870755 4.389496 -88.799440 -72.764040 -26.597380 -61.461180 4.834484 -71.249880 -119.352900 -30.976960 -5.385986 112.864000 -65.843200 45.916940 -4.562073 -8.459839 37.364490 160.761500 3.186184 169.267200 41.978040 -86.125610 -20.834840 2.052621 1.704984 32.940940 165.424100 -2.164093 165.723900 39.241310 -88.411440 -14.141170 6.002517 4.395442 -0.882752 175.596100 -6.620209 165.487200 31.479640 -85.617800 2.217421 -0.199310 0.562927 -0.773224 -174.998400 -11.589780 159.923000 48.977550 -83.530580 -3.705750 -5.539825 0.809166 21.939740 
-0.508763 2.870562 4.389217 -88.834050 -72.714290 -26.591310 -61.461180 4.834478 -71.245880 -119.352900 -30.976930 -5.430389 112.864000 -65.843230 46.091700 -4.562103 -8.459869 37.186360 160.685000 3.184378 169.205500 41.978030 -86.125550 -20.957490 2.052637 1.705001 32.969060 165.420400 -2.164459 165.655400 39.240400 -88.411320 -14.031920 6.002525 4.395432 -0.996796 175.627700 -6.612671 165.413300 31.479600 -85.617830 2.255590 -0.199310 0.562922 -0.712952 -174.912300 -11.560360 159.865700 48.977600 -83.530550 -3.485413 -5.539795 0.809166 21.896710 
-0.509101 2.870895 4.388902 -88.933620 -72.733950 -26.503720 -61.461180 4.834470 -71.193450 -119.352900 -30.976930 -5.397797 112.864000 -65.843200 45.968310 -4.562073 -8.459839 37.274640 160.769700 3.186356 169.210700 41.978460 -86.125550 -20.899810 2.052609 1.704994 33.034470 165.502200 -2.156921 165.639900 39.240180 -88.411320 -14.046360 6.002527 4.395453 -0.815826 175.695800 -6.596497 165.414400 31.479610 -85.617800 2.344045 -0.199310 0.562937 -0.734619 -174.883800 -11.550600 159.859100 48.977560 -83.530580 -3.525116 -5.539795 0.809172 21.826510 
-0.509173 2.870680 4.388627 -88.955080 -72.691800 -26.506230 -61.461180 4.834465 -71.129150 -119.352900 -30.976930 -5.387482 112.864000 -65.843200 45.921590 -4.562073 -8.459839 37.379580 160.745100 3.185795 169.125700 41.978390 -86.125550 -20.943570 2.052630 1.705009 32.986230 165.487200 -2.158295 165.578400 39.241090 -88.411190 -14.077730 6.002518 4.395436 -0.710022 175.746200 -6.584503 165.350900 31.479500 -85.617800 2.470716 -0.199310 0.562936 -0.794556 -174.829800 -11.532070 159.780300 48.977480 -83.530580 -3.431549 -5.539795 0.809165 21.750650 
-0.508692 2.870296 4.388408 -88.946410 -72.625310 -26.487460 -61.461180 4.834482 -71.184910 -119.352900 -30.976930 -5.451477 112.864000 -65.843200 46.050520 -4.562073 -8.459839 37.280620 160.650900 3.183560 169.141800 41.978320 -86.125670 -20.968510 2.052637 1.705005 33.076090 165.480000 -2.158966 165.590700 39.240140 -88.411190 -13.960480 6.002517 4.395440 -0.751526 175.744800 -6.584808 165.345800 31.479590 -85.617800 2.483517 -0.199310 0.562920 -0.775177 -174.776300 -11.513760 159.802000 48.977510 -83.530610 -3.295197 -5.539795 0.809178 21.702310 
-0.509435 2.869422 4.388002 -88.776610 -72.664400 -26.680690 -61.461180 4.834472 -71.321170 -119.352900 -30.976930 -5.447388 112.864000 -65.843230 46.291930 -4.562073 -8.459839 37.110420 160.653200 3.183618 169.175200 41.978030 -86.125610 -20.965360 2.052622 1.705007 33.171070 165.454100 -2.161346 165.592100 39.240700 -88.411320 -13.947630 6.002514 4.395450 -0.802094 175.695600 -6.596558 165.351200 31.479460 -85.617860 2.447608 -0.199310 0.562930 -0.662354 -174.855100 -11.540770 159.792900 48.977600 -83.530640 -3.317505 -5.539825 0.809185 21.724810 
-0.509229 2.870183 4.387798 -88.979190 -72.648990 -26.466550 -61.461180 4.834476 -71.291750 -119.352900 -30.976930 -5.483398 112.864000 -65.843200 46.320350 -4.562103 -8.459869 37.531270 160.699400 3.184723 169.163200 41.978200 -86.125610 -20.905060 2.052638 1.705004 33.080330 165.485400 -2.158447 165.613000 39.240780 -88.411320 -13.999760 6.002523 4.395461 -0.939087 175.756400 -6.582062 165.367100 31.479420 -85.617740 2.383763 -0.199310 0.562931 -0.568359 -174.776500 -11.513850 159.803200 48.977700 -83.530640 -3.324493 -5.539795 0.809175 21.921470 
-0.508990 2.870435 4.387329 -89.035770 -72.660680 -26.380130 -61.461180 4.834480 -71.263240 -119.352900 -30.976930 -5.461914 112.864000 -65.843200 46.118110 -4.562073 -8.459869 37.470120 160.720200 3.185200 169.201900 41.977910 -86.125550 -20.865660 2.052619 1.704991 33.112830 165.546100 -2.152893 165.666800 39.240730 -88.411320 -13.895420 6.002522 4.395452 -1.150085 175.822800 -6.566254 165.409000 31.479320 -85.617800 2.525882 -0.199310 0.562925 -0.622955 -174.752700 -11.505680 159.860100 48.977540 -83.530610 -3.279327 -5.539795 0.809172 21.938750 
